<svg width="164" height="72" viewBox="0 0 164 72" fill="none" xmlns="http://www.w3.org/2000/svg">
<path d="M3.10184 71.8295H0V62.1326H3.23926C4.21431 62.1326 5.04867 62.3267 5.74233 62.715C6.43599 63.1001 6.96769 63.654 7.33742 64.3769C7.70716 65.0966 7.89202 65.9583 7.89202 66.9621C7.89202 67.9722 7.70552 68.8419 7.33252 69.571C6.95951 70.297 6.41636 70.8557 5.70307 71.2472C4.98978 71.6354 4.1227 71.8295 3.10184 71.8295ZM1.21718 70.7879H3.02331C3.8544 70.7879 4.54315 70.6332 5.08957 70.3239C5.63599 70.0145 6.04335 69.5742 6.31166 69.0028C6.57996 68.4315 6.71411 67.7513 6.71411 66.9621C6.71411 66.1793 6.5816 65.5054 6.31656 64.9403C6.05153 64.3722 5.65562 63.9366 5.12883 63.6335C4.60204 63.3273 3.94601 63.1742 3.16074 63.1742H1.21718V70.7879Z" fill="#32282E"/>
<path d="M9.93374 71.8295V62.1326H16V63.1742H11.1509V66.4508H15.6859V67.4924H11.1509V70.7879H16.0785V71.8295H9.93374Z" fill="#32282E"/>
<path d="M23.6908 64.5568C23.6319 64.077 23.393 63.7045 22.9742 63.4394C22.5554 63.1742 22.0417 63.0417 21.4331 63.0417C20.9881 63.0417 20.5988 63.1111 20.265 63.25C19.9346 63.3889 19.6761 63.5799 19.4896 63.8229C19.3063 64.066 19.2147 64.3422 19.2147 64.6515C19.2147 64.9104 19.2785 65.1329 19.4061 65.3191C19.537 65.5022 19.7039 65.6553 19.9067 65.7784C20.1096 65.8984 20.3223 65.9978 20.5448 66.0767C20.7673 66.1525 20.9718 66.214 21.1583 66.2614L22.1791 66.5265C22.4409 66.5928 22.7321 66.6843 23.0528 66.8011C23.3767 66.9179 23.6859 67.0773 23.9804 67.2794C24.2781 67.4782 24.5235 67.7339 24.7166 68.0464C24.9096 68.3589 25.0061 68.7424 25.0061 69.197C25.0061 69.721 24.8638 70.1944 24.5791 70.6174C24.2978 71.0404 23.8855 71.3766 23.3423 71.6259C22.8025 71.8753 22.1464 72 21.3742 72C20.6544 72 20.0311 71.8879 19.5043 71.6638C18.9808 71.4397 18.5685 71.1272 18.2675 70.7263C17.9697 70.3254 17.8012 69.8598 17.762 69.3295H19.0184C19.0511 69.6957 19.1787 69.9987 19.4012 70.2386C19.627 70.4754 19.9117 70.6521 20.2552 70.7689C20.602 70.8826 20.9751 70.9394 21.3742 70.9394C21.8389 70.9394 22.256 70.8668 22.6258 70.7216C22.9955 70.5732 23.2883 70.3681 23.5043 70.1061C23.7202 69.8409 23.8282 69.5316 23.8282 69.178C23.8282 68.8561 23.735 68.5941 23.5485 68.392C23.362 68.19 23.1166 68.0259 22.8123 67.8996C22.508 67.7734 22.1791 67.6629 21.8258 67.5682L20.589 67.2273C19.8037 67.0095 19.182 66.6985 18.7239 66.2945C18.2658 65.8905 18.0368 65.3617 18.0368 64.7083C18.0368 64.1654 18.189 63.6919 18.4933 63.2879C18.8008 62.8807 19.2131 62.565 19.7301 62.3409C20.2503 62.1136 20.8311 62 21.4724 62C22.1202 62 22.6961 62.1121 23.2 62.3362C23.7039 62.5571 24.1031 62.8602 24.3975 63.2453C24.6953 63.6304 24.8524 64.0676 24.8687 64.5568H23.6908Z" fill="#32282E"/>
<path d="M28.2245 62.1326V71.8295H27.0074V62.1326H28.2245Z" fill="#32282E"/>
<path d="M37.5362 65.1629C37.4282 64.8441 37.2859 64.5584 37.1092 64.3059C36.9358 64.0502 36.728 63.8324 36.4859 63.6525C36.247 63.4725 35.9755 63.3352 35.6712 63.2405C35.3669 63.1458 35.0331 63.0985 34.6699 63.0985C34.0744 63.0985 33.5329 63.2468 33.0454 63.5436C32.5579 63.8403 32.1701 64.2775 31.8822 64.8551C31.5943 65.4328 31.4503 66.1414 31.4503 66.9811C31.4503 67.8207 31.5959 68.5294 31.8871 69.107C32.1783 69.6847 32.5726 70.1218 33.0699 70.4186C33.5673 70.7153 34.1268 70.8636 34.7485 70.8636C35.3243 70.8636 35.8315 70.7453 36.2699 70.5085C36.7117 70.2686 37.0552 69.9309 37.3006 69.4953C37.5493 69.0565 37.6736 68.5404 37.6736 67.947L38.0466 68.0227H35.0233V66.9811H38.8515V68.0227C38.8515 68.8213 38.6749 69.5158 38.3215 70.1061C37.9714 70.6963 37.4871 71.154 36.8687 71.4792C36.2536 71.8011 35.5468 71.9621 34.7485 71.9621C33.8585 71.9621 33.0765 71.7601 32.4025 71.3561C31.7317 70.952 31.2082 70.3775 30.8319 69.6326C30.4589 68.8876 30.2724 68.0038 30.2724 66.9811C30.2724 66.214 30.3787 65.5243 30.5914 64.9119C30.8074 64.2964 31.1117 63.7724 31.5043 63.34C31.8969 62.9075 32.3616 62.5761 32.8982 62.3456C33.4348 62.1152 34.0254 62 34.6699 62C35.2 62 35.6941 62.0773 36.1521 62.232C36.6135 62.3835 37.0241 62.5997 37.384 62.8807C37.7472 63.1585 38.0499 63.4915 38.292 63.8797C38.5342 64.2648 38.701 64.6926 38.7926 65.1629H37.5362Z" fill="#32282E"/>
<path d="M48.9067 62.1326V71.8295H47.7288L42.2515 64.2159H42.1534V71.8295H40.9362V62.1326H42.1141L47.611 69.7652H47.7092V62.1326H48.9067Z" fill="#32282E"/>
<path d="M51.3423 71.8295V62.1326H57.4086V63.1742H52.5595V66.4508H57.0945V67.4924H52.5595V70.7879H57.4871V71.8295H51.3423Z" fill="#32282E"/>
<path d="M59.6025 71.8295V62.1326H62.9988C63.7841 62.1326 64.4286 62.262 64.9325 62.5208C65.4364 62.7765 65.8094 63.1285 66.0515 63.5767C66.2937 64.0249 66.4147 64.5347 66.4147 65.1061C66.4147 65.6774 66.2937 66.184 66.0515 66.6259C65.8094 67.0679 65.438 67.4151 64.9374 67.6676C64.4368 67.917 63.7971 68.0417 63.0184 68.0417H60.2699V66.9811H62.9791C63.5157 66.9811 63.9477 66.9053 64.2748 66.7538C64.6053 66.6023 64.8442 66.3876 64.9914 66.1098C65.1419 65.8289 65.2172 65.4943 65.2172 65.1061C65.2172 64.7178 65.1419 64.3785 64.9914 64.0881C64.8409 63.7977 64.6004 63.5735 64.2699 63.4157C63.9395 63.2547 63.5027 63.1742 62.9595 63.1742H60.8196V71.8295H59.6025ZM64.3337 67.4735L66.8074 71.8295H65.3939L62.9595 67.4735H64.3337Z" fill="#32282E"/>
<path d="M75.0196 71.9621C74.3587 71.9621 73.7894 71.8453 73.3117 71.6117C72.8339 71.3782 72.4658 71.0578 72.2074 70.6506C71.9489 70.2434 71.8196 69.7778 71.8196 69.2538C71.8196 68.8497 71.908 68.4915 72.0847 68.179C72.2646 67.8633 72.5117 67.5713 72.8258 67.303C73.1431 67.0316 73.508 66.7601 73.9202 66.4886L75.373 65.447C75.6577 65.267 75.8851 65.0745 76.0552 64.8693C76.2286 64.6641 76.3153 64.3958 76.3153 64.0644C76.3153 63.8182 76.2025 63.5799 75.9767 63.3494C75.7542 63.119 75.4614 63.0038 75.0982 63.0038C74.8429 63.0038 74.6172 63.0669 74.4209 63.1932C74.2278 63.3163 74.0757 63.4741 73.9644 63.6667C73.8564 63.8561 73.8025 64.0518 73.8025 64.2538C73.8025 64.4811 73.8663 64.7115 73.9939 64.9451C74.1247 65.1755 74.29 65.4122 74.4896 65.6553C74.6924 65.8952 74.9018 66.1414 75.1178 66.3939L79.7313 71.8295H78.3374L74.5288 67.3977C74.1755 66.9874 73.8548 66.6149 73.5669 66.2803C73.2789 65.9457 73.0499 65.6158 72.8798 65.2907C72.7096 64.9656 72.6245 64.6136 72.6245 64.2348C72.6245 63.7992 72.7243 63.4173 72.9239 63.089C73.1268 62.7576 73.4098 62.5003 73.773 62.3172C74.1395 62.131 74.5681 62.0379 75.0589 62.0379C75.5628 62.0379 75.9963 62.1326 76.3595 62.322C76.7227 62.5082 77.0025 62.756 77.1988 63.0653C77.3951 63.3715 77.4932 63.7045 77.4932 64.0644C77.4932 64.5284 77.3738 64.9309 77.135 65.2718C76.8961 65.6127 76.5705 65.9299 76.1583 66.2235L74.1558 67.6629C73.7043 67.9848 73.3984 68.2973 73.238 68.6004C73.0777 68.9034 72.9975 69.1212 72.9975 69.2538C72.9975 69.5568 73.0793 69.8393 73.2429 70.1013C73.4065 70.3633 73.6372 70.5748 73.935 70.7358C74.2327 70.8968 74.5812 70.9773 74.9804 70.9773C75.3599 70.9773 75.7297 70.8999 76.0896 70.7453C76.4495 70.5874 76.775 70.3602 77.0663 70.0634C77.3607 69.7667 77.593 69.41 77.7632 68.9934C77.9366 68.5767 78.0233 68.108 78.0233 67.5871H79.1423C79.1423 68.2311 79.0654 68.7566 78.9117 69.1638C78.7579 69.571 78.5845 69.8898 78.3914 70.1203C78.1984 70.3507 78.0429 70.5227 77.9251 70.6364C77.8859 70.6837 77.8499 70.7311 77.8172 70.7784C77.7845 70.8258 77.7485 70.8731 77.7092 70.9205C77.3853 71.2708 76.9763 71.5328 76.4822 71.7064C75.9881 71.8769 75.5006 71.9621 75.0196 71.9621Z" fill="#32282E"/>
<path d="M88.1595 71.8295H85.0577V62.1326H88.2969C89.272 62.1326 90.1063 62.3267 90.8 62.715C91.4937 63.1001 92.0254 63.654 92.3951 64.3769C92.7648 65.0966 92.9497 65.9583 92.9497 66.9621C92.9497 67.9722 92.7632 68.8419 92.3902 69.571C92.0172 70.297 91.474 70.8557 90.7607 71.2472C90.0474 71.6354 89.1804 71.8295 88.1595 71.8295ZM86.2748 70.7879H88.081C88.9121 70.7879 89.6008 70.6332 90.1472 70.3239C90.6937 70.0145 91.101 69.5742 91.3693 69.0028C91.6376 68.4315 91.7718 67.7513 91.7718 66.9621C91.7718 66.1793 91.6393 65.5054 91.3742 64.9403C91.1092 64.3722 90.7133 63.9366 90.1865 63.6335C89.6597 63.3273 89.0037 63.1742 88.2184 63.1742H86.2748V70.7879Z" fill="#32282E"/>
<path d="M94.9914 71.8295V62.1326H101.058V63.1742H96.2086V66.4508H100.744V67.4924H96.2086V70.7879H101.136V71.8295H94.9914Z" fill="#32282E"/>
<path d="M103.664 62.1326L106.648 70.2955H106.766L109.75 62.1326H111.026L107.335 71.8295H106.079L102.388 62.1326H103.664Z" fill="#32282E"/>
<path d="M112.591 71.8295V62.1326H118.658V63.1742H113.809V66.4508H118.344V67.4924H113.809V70.7879H118.736V71.8295H112.591Z" fill="#32282E"/>
<path d="M120.852 71.8295V62.1326H122.069V70.7879H126.741V71.8295H120.852Z" fill="#32282E"/>
<path d="M136.715 66.9811C136.715 68.0038 136.524 68.8876 136.141 69.6326C135.758 70.3775 135.233 70.952 134.566 71.3561C133.898 71.7601 133.136 71.9621 132.279 71.9621C131.421 71.9621 130.659 71.7601 129.991 71.3561C129.324 70.952 128.799 70.3775 128.416 69.6326C128.033 68.8876 127.842 68.0038 127.842 66.9811C127.842 65.9583 128.033 65.0745 128.416 64.3295C128.799 63.5846 129.324 63.0101 129.991 62.6061C130.659 62.202 131.421 62 132.279 62C133.136 62 133.898 62.202 134.566 62.6061C135.233 63.0101 135.758 63.5846 136.141 64.3295C136.524 65.0745 136.715 65.9583 136.715 66.9811ZM135.537 66.9811C135.537 66.1414 135.392 65.4328 135.101 64.8551C134.813 64.2775 134.422 63.8403 133.928 63.5436C133.437 63.2468 132.887 63.0985 132.279 63.0985C131.67 63.0985 131.119 63.2468 130.625 63.5436C130.134 63.8403 129.743 64.2775 129.452 64.8551C129.164 65.4328 129.02 66.1414 129.02 66.9811C129.02 67.8207 129.164 68.5294 129.452 69.107C129.743 69.6847 130.134 70.1218 130.625 70.4186C131.119 70.7153 131.67 70.8636 132.279 70.8636C132.887 70.8636 133.437 70.7153 133.928 70.4186C134.422 70.1218 134.813 69.6847 135.101 69.107C135.392 68.5294 135.537 67.8207 135.537 66.9811Z" fill="#32282E"/>
<path d="M138.762 71.8295V62.1326H142.158C142.947 62.1326 143.591 62.2699 144.092 62.5445C144.596 62.816 144.969 63.1837 145.211 63.6477C145.453 64.1117 145.574 64.6294 145.574 65.2008C145.574 65.7721 145.453 66.2914 145.211 66.7585C144.972 67.2257 144.602 67.5982 144.102 67.8759C143.601 68.1506 142.96 68.2879 142.178 68.2879H139.744V67.2462H142.139C142.679 67.2462 143.112 67.1562 143.439 66.9763C143.766 66.7964 144.004 66.5533 144.151 66.2472C144.301 65.9378 144.377 65.589 144.377 65.2008C144.377 64.8125 144.301 64.4653 144.151 64.1591C144.004 63.8529 143.765 63.613 143.434 63.4394C143.104 63.2626 142.665 63.1742 142.119 63.1742H139.979V71.8295H138.762Z" fill="#32282E"/>
<path d="M147.535 71.8295V62.1326H153.601V63.1742H148.752V66.4508H153.287V67.4924H148.752V70.7879H153.68V71.8295H147.535Z" fill="#32282E"/>
<path d="M155.795 71.8295V62.1326H159.191C159.977 62.1326 160.621 62.262 161.125 62.5208C161.629 62.7765 162.002 63.1285 162.244 63.5767C162.486 64.0249 162.607 64.5347 162.607 65.1061C162.607 65.6774 162.486 66.184 162.244 66.6259C162.002 67.0679 161.631 67.4151 161.13 67.6676C160.629 67.917 159.99 68.0417 159.211 68.0417H156.463V66.9811H159.172C159.708 66.9811 160.14 66.9053 160.467 66.7538C160.798 66.6023 161.037 66.3876 161.184 66.1098C161.335 65.8289 161.41 65.4943 161.41 65.1061C161.41 64.7178 161.335 64.3785 161.184 64.0881C161.034 63.7977 160.793 63.5735 160.463 63.4157C160.132 63.2547 159.695 63.1742 159.152 63.1742H157.012V71.8295H155.795ZM160.526 67.4735L163 71.8295H161.587L159.152 67.4735H160.526Z" fill="#32282E"/>
<path d="M126.27 0V23.789C126.27 24.7558 126.41 25.4118 126.69 25.757C126.994 26.1023 127.508 26.2749 128.232 26.2749V27C127.765 26.977 127.064 26.954 126.13 26.9309C125.195 26.8849 124.237 26.8619 123.256 26.8619C122.275 26.8619 121.282 26.8849 120.278 26.9309C119.273 26.954 118.514 26.977 118 27V26.2749C118.724 26.2749 119.226 26.1023 119.507 25.757C119.81 25.4118 119.962 24.7558 119.962 23.789V4.14322C119.962 3.10742 119.822 2.34783 119.542 1.86445C119.261 1.35806 118.748 1.10486 118 1.10486V0.379797C118.748 0.448851 119.472 0.483378 120.173 0.483378C121.341 0.483378 122.427 0.448851 123.431 0.379797C124.459 0.287725 125.405 0.161126 126.27 0Z" fill="#32282E"/>
<path d="M135.034 0C136.249 0 137.184 0.253197 137.838 0.759591C138.515 1.24297 138.854 1.97954 138.854 2.96931C138.854 3.95908 138.515 4.70716 137.838 5.21356C137.184 5.69693 136.249 5.93862 135.034 5.93862C133.82 5.93862 132.874 5.69693 132.196 5.21356C131.542 4.70716 131.215 3.95908 131.215 2.96931C131.215 1.97954 131.542 1.24297 132.196 0.759591C132.874 0.253197 133.82 0 135.034 0ZM138.398 8.70077V23.789C138.398 24.7558 138.539 25.4118 138.819 25.757C139.123 26.1023 139.636 26.2749 140.361 26.2749V27C139.893 26.977 139.193 26.954 138.258 26.9309C137.324 26.8849 136.366 26.8619 135.385 26.8619C134.404 26.8619 133.411 26.8849 132.406 26.9309C131.402 26.954 130.643 26.977 130.129 27V26.2749C130.853 26.2749 131.355 26.1023 131.635 25.757C131.939 25.4118 132.091 24.7558 132.091 23.789V12.844C132.091 11.8082 131.951 11.0486 131.67 10.5652C131.39 10.0588 130.876 9.80563 130.129 9.80563V9.08056C130.876 9.14962 131.6 9.18414 132.301 9.18414C133.469 9.18414 134.555 9.14962 135.56 9.08056C136.588 8.98849 137.534 8.86189 138.398 8.70077Z" fill="#32282E"/>
<path d="M156.062 8.59719C157.136 8.59719 157.977 8.73529 158.585 9.01151C159.216 9.26471 159.694 9.58696 160.022 9.97826C160.372 10.3926 160.629 10.945 160.792 11.6355C160.956 12.3261 161.038 13.2583 161.038 14.4322V23.789C161.038 24.7558 161.178 25.4118 161.458 25.757C161.762 26.1023 162.276 26.2749 163 26.2749V27C162.533 26.977 161.82 26.954 160.862 26.9309C159.928 26.8849 159.005 26.8619 158.094 26.8619C157.113 26.8619 156.155 26.8849 155.221 26.9309C154.286 26.954 153.586 26.977 153.118 27V26.2749C153.726 26.2749 154.146 26.1023 154.38 25.757C154.613 25.4118 154.73 24.7558 154.73 23.789V12.5678C154.73 12.0844 154.672 11.6816 154.555 11.3593C154.438 11.0371 154.251 10.7954 153.994 10.6343C153.761 10.4731 153.434 10.3926 153.013 10.3926C152.593 10.3926 152.184 10.4962 151.787 10.7033C151.413 10.9105 151.098 11.2097 150.841 11.601C150.607 11.9693 150.49 12.3951 150.49 12.8785V23.789C150.49 24.7558 150.607 25.4118 150.841 25.757C151.098 26.1023 151.518 26.2749 152.102 26.2749V27C151.658 26.977 151.004 26.954 150.14 26.9309C149.276 26.8849 148.388 26.8619 147.477 26.8619C146.496 26.8619 145.503 26.8849 144.498 26.9309C143.494 26.954 142.735 26.977 142.221 27V26.2749C142.945 26.2749 143.447 26.1023 143.727 25.757C144.031 25.4118 144.183 24.7558 144.183 23.789V12.844C144.183 11.8082 144.043 11.0486 143.762 10.5652C143.482 10.0588 142.968 9.80563 142.221 9.80563V9.08056C142.968 9.14962 143.692 9.18414 144.393 9.18414C145.561 9.18414 146.647 9.14962 147.652 9.08056C148.68 8.98849 149.626 8.86189 150.49 8.70077V11.1867C151.051 10.266 151.799 9.60997 152.733 9.21867C153.691 8.80435 154.8 8.59719 156.062 8.59719Z" fill="#32282E"/>
<path d="M73.9392 7C75.9798 7 77.5798 7.63376 78.7393 8.90128C79.9219 10.1444 80.5132 12.2407 80.5132 15.1901H69.6261L69.5566 14.4954H75.4349C75.4581 13.301 75.4117 12.2041 75.2958 11.2048C75.1798 10.181 74.9943 9.36441 74.7392 8.75503C74.4842 8.14564 74.1363 7.84095 73.6957 7.84095C73.0697 7.84095 72.5595 8.36502 72.1653 9.41316C71.7711 10.4369 71.516 12.2041 71.4001 14.7148L71.5392 15.0073C71.516 15.2511 71.5044 15.4948 71.5044 15.7386C71.5044 15.9823 71.5044 16.2383 71.5044 16.5064C71.5044 18.2127 71.7015 19.5411 72.0957 20.4918C72.5131 21.4424 73.0233 22.1005 73.6262 22.4662C74.2523 22.8318 74.8784 23.0146 75.5045 23.0146C75.8291 23.0146 76.2117 22.9659 76.6523 22.8684C77.1161 22.7709 77.6146 22.5515 78.148 22.2102C78.6813 21.8446 79.2031 21.2962 79.7132 20.5649L80.3045 20.7843C80.0262 21.7593 79.5741 22.7343 78.948 23.7093C78.3451 24.66 77.5567 25.4522 76.5827 26.0859C75.6088 26.6953 74.4262 27 73.0349 27C71.5508 27 70.1943 26.6831 68.9653 26.0494C67.7595 25.4156 66.7971 24.3675 66.0783 22.9049C65.3594 21.4424 65 19.4802 65 17.0183C65 14.6782 65.3942 12.777 66.1826 11.3144C66.971 9.82754 68.0377 8.74284 69.3827 8.06033C70.7508 7.35344 72.2696 7 73.9392 7Z" fill="#32282E"/>
<path d="M99.5833 7.51188V8.27971C99.1427 8.45034 98.7137 8.79159 98.2963 9.30347C97.9021 9.79098 97.5079 10.6319 97.1137 11.8263L92.418 26.4881C91.8614 26.4394 91.2933 26.415 90.7136 26.415C90.1571 26.415 89.6005 26.4394 89.044 26.4881L82.9918 10.3272C82.6439 9.40098 82.2845 8.82815 81.9135 8.60878C81.5425 8.3894 81.2294 8.27971 80.9744 8.27971V7.51188C81.9019 7.58501 82.8642 7.64595 83.8613 7.6947C84.8585 7.71908 85.9599 7.73126 87.1657 7.73126C87.8846 7.73126 88.6382 7.70689 89.4266 7.65814C90.2382 7.60939 90.9919 7.56063 91.6875 7.51188V8.27971C91.2701 8.27971 90.8875 8.30408 90.5397 8.35283C90.215 8.37721 89.9716 8.4869 89.8092 8.6819C89.6701 8.85253 89.6469 9.1816 89.7397 9.6691L93.6354 21.0768L93.1832 21.808L95.131 15.702C95.6644 14.0445 95.8847 12.6795 95.7919 11.6069C95.7223 10.5344 95.4557 9.73004 94.9919 9.19378C94.5281 8.63315 93.9484 8.32846 93.2527 8.27971V7.51188C93.5774 7.53626 93.9716 7.56064 94.4354 7.58501C94.8991 7.60939 95.3513 7.63376 95.7919 7.65814C96.2557 7.65814 96.6267 7.65814 96.905 7.65814C97.3224 7.65814 97.8093 7.64595 98.3658 7.62157C98.9224 7.5972 99.3282 7.56063 99.5833 7.51188Z" fill="#32282E"/>
<path d="M109.426 7C111.467 7 113.067 7.63376 114.226 8.90128C115.409 10.1444 116 12.2407 116 15.1901H105.113L105.043 14.4954H110.922C110.945 13.301 110.898 12.2041 110.783 11.2048C110.667 10.181 110.481 9.36441 110.226 8.75503C109.971 8.14564 109.623 7.84095 109.183 7.84095C108.556 7.84095 108.046 8.36502 107.652 9.41316C107.258 10.4369 107.003 12.2041 106.887 14.7148L107.026 15.0073C107.003 15.2511 106.991 15.4948 106.991 15.7386C106.991 15.9823 106.991 16.2383 106.991 16.5064C106.991 18.2127 107.188 19.5411 107.583 20.4918C108 21.4424 108.51 22.1005 109.113 22.4662C109.739 22.8318 110.365 23.0146 110.991 23.0146C111.316 23.0146 111.699 22.9659 112.139 22.8684C112.603 22.7709 113.101 22.5515 113.635 22.2102C114.168 21.8446 114.69 21.2962 115.2 20.5649L115.791 20.7843C115.513 21.7593 115.061 22.7343 114.435 23.7093C113.832 24.66 113.043 25.4522 112.07 26.0859C111.096 26.6953 109.913 27 108.522 27C107.038 27 105.681 26.6831 104.452 26.0494C103.246 25.4156 102.284 24.3675 101.565 22.9049C100.846 21.4424 100.487 19.4802 100.487 17.0183C100.487 14.6782 100.881 12.777 101.669 11.3144C102.458 9.82754 103.525 8.74284 104.869 8.06033C106.238 7.35344 107.756 7 109.426 7Z" fill="#32282E"/>
<path d="M18.645 31.2513V31.9899C18.2035 32.1541 17.7737 32.4824 17.3555 32.9749C16.9605 33.4439 16.5656 34.2529 16.1706 35.402L11.4658 49.5075C10.9082 49.4606 10.339 49.4372 9.75811 49.4372C9.2005 49.4372 8.6429 49.4606 8.08529 49.5075L2.02132 33.9598C1.67282 33.0687 1.3127 32.5176 0.940961 32.3065C0.569223 32.0955 0.25557 31.9899 0 31.9899V31.2513C0.929344 31.3216 1.89354 31.3802 2.89258 31.4271C3.89163 31.4506 4.99522 31.4623 6.20337 31.4623C6.92361 31.4623 7.6787 31.4389 8.46865 31.392C9.28182 31.3451 10.0369 31.2982 10.7339 31.2513V31.9899C10.3157 31.9899 9.93236 32.0134 9.58386 32.0603C9.25859 32.0838 9.01464 32.1893 8.852 32.3769C8.7126 32.541 8.68937 32.8576 8.7823 33.3266L12.6855 44.3015L12.2325 45.005L14.1841 39.1307C14.7185 37.536 14.9392 36.2228 14.8463 35.191C14.7766 34.1591 14.5094 33.3853 14.0447 32.8693C13.58 32.33 12.9992 32.0369 12.3022 31.9899V31.2513C12.6275 31.2747 13.0224 31.2982 13.4871 31.3216C13.9518 31.3451 14.4048 31.3685 14.8463 31.392C15.3109 31.392 15.6827 31.392 15.9615 31.392C16.3797 31.392 16.8676 31.3802 17.4252 31.3568C17.9828 31.3333 18.3894 31.2982 18.645 31.2513Z" fill="#32282E"/>
<path d="M24.7274 22C25.9356 22 26.8649 22.258 27.5155 22.7739C28.1893 23.2663 28.5261 24.0168 28.5261 25.0251C28.5261 26.0335 28.1893 26.7956 27.5155 27.3116C26.8649 27.804 25.9356 28.0503 24.7274 28.0503C23.5193 28.0503 22.5783 27.804 21.9046 27.3116C21.254 26.7956 20.9288 26.0335 20.9288 25.0251C20.9288 24.0168 21.254 23.2663 21.9046 22.7739C22.5783 22.258 23.5193 22 24.7274 22ZM28.0731 30.8643V46.2362C28.0731 47.2211 28.2125 47.8894 28.4913 48.2412C28.7933 48.593 29.3045 48.7688 30.0247 48.7688V49.5075C29.56 49.4841 28.863 49.4606 27.9337 49.4372C27.0043 49.3903 26.0518 49.3668 25.0759 49.3668C24.1001 49.3668 23.1127 49.3903 22.1137 49.4372C21.1146 49.4606 20.3595 49.4841 19.8484 49.5075V48.7688C20.5686 48.7688 21.0682 48.593 21.347 48.2412C21.649 47.8894 21.8 47.2211 21.8 46.2362V35.0854C21.8 34.0302 21.6606 33.2563 21.3818 32.7638C21.103 32.2479 20.5919 31.9899 19.8484 31.9899V31.2513C20.5919 31.3216 21.3121 31.3568 22.0091 31.3568C23.1708 31.3568 24.2512 31.3216 25.2502 31.2513C26.2725 31.1575 27.2134 31.0285 28.0731 30.8643Z" fill="#32282E"/>
<path d="M44.5949 30.7588C45.4313 30.7588 46.0818 30.9464 46.5465 31.3216C47.0112 31.6734 47.3365 32.1307 47.5223 32.6935C47.7082 33.2328 47.8011 33.7722 47.8011 34.3116C47.8011 35.3668 47.4991 36.2111 46.895 36.8442C46.3142 37.4539 45.5475 37.7588 44.5949 37.7588C43.5726 37.7588 42.7943 37.5243 42.2599 37.0553C41.7488 36.5863 41.4932 35.9765 41.4932 35.2261C41.4932 34.4288 41.6558 33.7722 41.9811 33.2563C42.3296 32.7404 42.7594 32.3065 43.2706 31.9548C42.8524 31.9548 42.4806 32.0369 42.1554 32.201C41.8766 32.3183 41.6094 32.4824 41.3538 32.6935C41.0982 32.9045 40.8775 33.1508 40.6917 33.4322C40.5058 33.6901 40.3548 33.9832 40.2386 34.3116C40.1457 34.6399 40.0992 34.9799 40.0992 35.3317V45.8844C40.0992 47.01 40.3315 47.7722 40.7962 48.1709C41.2609 48.5695 42.0276 48.7688 43.0963 48.7688V49.5075C42.562 49.4841 41.7604 49.4606 40.6917 49.4372C39.6461 49.3903 38.5658 49.3668 37.4506 49.3668C36.405 49.3668 35.3479 49.3903 34.2792 49.4372C33.2104 49.4606 32.4089 49.4841 31.8745 49.5075V48.7688C32.5947 48.7688 33.0943 48.593 33.3731 48.2412C33.6751 47.8894 33.8261 47.2211 33.8261 46.2362V35.0854C33.8261 34.0302 33.6867 33.2563 33.4079 32.7638C33.1291 32.2479 32.618 31.9899 31.8745 31.9899V31.2513C32.618 31.3216 33.3382 31.3568 34.0352 31.3568C35.1969 31.3568 36.2773 31.3216 37.2763 31.2513C38.2986 31.1575 39.2395 31.0285 40.0992 30.8643V33.397C40.4012 32.7873 40.773 32.2948 41.2144 31.9196C41.6558 31.5209 42.1554 31.2278 42.713 31.0402C43.2938 30.8526 43.9211 30.7588 44.5949 30.7588Z" fill="#32282E"/>
<path d="M67.542 30.8643V45.6734C67.542 46.7286 67.6814 47.5142 67.9602 48.0301C68.2622 48.5226 68.7733 48.7688 69.4936 48.7688V49.5075C68.7733 49.4372 68.0531 49.402 67.3329 49.402C66.1712 49.402 65.0908 49.4372 64.0918 49.5075C63.0927 49.5779 62.1518 49.7069 61.2689 49.8945V47.3618C60.7113 48.2998 59.9562 48.9799 59.0036 49.402C58.0743 49.8007 56.9823 50 55.7277 50C54.6589 50 53.8109 49.8593 53.1836 49.5779C52.5795 49.3199 52.1149 48.9916 51.7896 48.593C51.4411 48.1709 51.1855 47.608 51.0229 46.9045C50.8602 46.201 50.7789 45.2513 50.7789 44.0553V35.0854C50.7789 34.0302 50.6395 33.2563 50.3607 32.7638C50.0819 32.2479 49.5708 31.9899 48.8273 31.9899V31.2513C49.5708 31.3216 50.291 31.3568 50.988 31.3568C52.1497 31.3568 53.2301 31.3216 54.2291 31.2513C55.2514 31.1575 56.1924 31.0285 57.052 30.8643V45.9548C57.052 46.4472 57.1101 46.8576 57.2263 47.1859C57.3424 47.5142 57.5283 47.7605 57.7839 47.9246C58.0394 48.0888 58.3647 48.1709 58.7597 48.1709C59.2011 48.1709 59.6077 48.0653 59.9794 47.8543C60.3512 47.6432 60.6532 47.3501 60.8855 46.9749C61.1411 46.5762 61.2689 46.1306 61.2689 45.6382V35.0854C61.2689 34.0302 61.1295 33.2563 60.8507 32.7638C60.5719 32.2479 60.0608 31.9899 59.3173 31.9899V31.2513C60.0608 31.3216 60.781 31.3568 61.478 31.3568C62.6397 31.3568 63.72 31.3216 64.7191 31.2513C65.7414 31.1575 66.6823 31.0285 67.542 30.8643Z" fill="#32282E"/>
<path d="M85.1439 30.7588C86.2126 30.7588 87.049 30.8995 87.6531 31.1809C88.2804 31.4389 88.7567 31.7672 89.082 32.1658C89.4305 32.5879 89.686 33.1508 89.8487 33.8543C90.0113 34.5578 90.0926 35.5075 90.0926 36.7035V46.2362C90.0926 47.2211 90.232 47.8894 90.5108 48.2412C90.8129 48.593 91.324 48.7688 92.0443 48.7688V49.5075C91.5796 49.4841 90.871 49.4606 89.9184 49.4372C88.989 49.3903 88.0713 49.3668 87.1652 49.3668C86.1894 49.3668 85.2368 49.3903 84.3075 49.4372C83.3781 49.4606 82.6811 49.4841 82.2164 49.5075V48.7688C82.8205 48.7688 83.2387 48.593 83.471 48.2412C83.7034 47.8894 83.8195 47.2211 83.8195 46.2362V34.804C83.8195 34.3116 83.7615 33.9012 83.6453 33.5729C83.5291 33.2446 83.3433 32.9983 83.0877 32.8342C82.8554 32.67 82.5301 32.5879 82.1119 32.5879C81.6937 32.5879 81.2871 32.6935 80.8921 32.9045C80.5204 33.1156 80.2067 33.4204 79.9512 33.8191C79.7188 34.1943 79.6027 34.6281 79.6027 35.1206V46.2362C79.6027 47.2211 79.7188 47.8894 79.9512 48.2412C80.2067 48.593 80.6249 48.7688 81.2058 48.7688V49.5075C80.7643 49.4841 80.1138 49.4606 79.2542 49.4372C78.3945 49.3903 77.5116 49.3668 76.6055 49.3668C75.6297 49.3668 74.6423 49.3903 73.6432 49.4372C72.6442 49.4606 71.8891 49.4841 71.378 49.5075V48.7688C72.0982 48.7688 72.5977 48.593 72.8765 48.2412C73.1786 47.8894 73.3296 47.2211 73.3296 46.2362V35.0854C73.3296 34.0302 73.1902 33.2563 72.9114 32.7638C72.6326 32.2479 72.1214 31.9899 71.378 31.9899V31.2513C72.1214 31.3216 72.8417 31.3568 73.5387 31.3568C74.7004 31.3568 75.7807 31.3216 76.7798 31.2513C77.8021 31.1575 78.743 31.0285 79.6027 30.8643V33.397C80.1603 32.459 80.9037 31.7906 81.8331 31.392C82.7857 30.9698 83.8893 30.7588 85.1439 30.7588Z" fill="#32282E"/>
<path d="M112.048 30.8643V45.6734C112.048 46.7286 112.188 47.5142 112.467 48.0301C112.769 48.5226 113.28 48.7688 114 48.7688V49.5075C113.28 49.4372 112.56 49.402 111.839 49.402C110.678 49.402 109.597 49.4372 108.598 49.5075C107.599 49.5779 106.658 49.7069 105.775 49.8945V47.3618C105.218 48.2998 104.463 48.9799 103.51 49.402C102.581 49.8007 101.489 50 100.234 50C99.1653 50 98.3173 49.8593 97.69 49.5779C97.0859 49.3199 96.6213 48.9916 96.296 48.593C95.9475 48.1709 95.6919 47.608 95.5293 46.9045C95.3667 46.201 95.2853 45.2513 95.2853 44.0553V35.0854C95.2853 34.0302 95.1459 33.2563 94.8671 32.7638C94.5883 32.2479 94.0772 31.9899 93.3337 31.9899V31.2513C94.0772 31.3216 94.7974 31.3568 95.4944 31.3568C96.6561 31.3568 97.7365 31.3216 98.7355 31.2513C99.7578 31.1575 100.699 31.0285 101.558 30.8643V45.9548C101.558 46.4472 101.616 46.8576 101.733 47.1859C101.849 47.5142 102.035 47.7605 102.29 47.9246C102.546 48.0888 102.871 48.1709 103.266 48.1709C103.708 48.1709 104.114 48.0653 104.486 47.8543C104.858 47.6432 105.16 47.3501 105.392 46.9749C105.648 46.5762 105.775 46.1306 105.775 45.6382V35.0854C105.775 34.0302 105.636 33.2563 105.357 32.7638C105.078 32.2479 104.567 31.9899 103.824 31.9899V31.2513C104.567 31.3216 105.287 31.3568 105.984 31.3568C107.146 31.3568 108.226 31.3216 109.225 31.2513C110.248 31.1575 111.189 31.0285 112.048 30.8643Z" fill="#32282E"/>
<path d="M127.779 32C128.619 32 129.273 32.1801 129.74 32.5403C130.206 32.878 130.533 33.3171 130.72 33.8574C130.907 34.3752 131 34.8931 131 35.4109C131 36.424 130.697 37.2345 130.09 37.8424C129.506 38.4278 128.736 38.7205 127.779 38.7205C126.752 38.7205 125.97 38.4953 125.433 38.045C124.92 37.5947 124.663 37.0094 124.663 36.2889C124.663 35.5235 124.826 34.8931 125.153 34.3977C125.503 33.9024 125.935 33.4859 126.449 33.1482C126.028 33.1482 125.655 33.227 125.328 33.3846C125.048 33.4972 124.78 33.6548 124.523 33.8574C124.266 34.06 124.044 34.2964 123.858 34.5666C123.671 34.8143 123.519 35.0957 123.403 35.4109C123.309 35.7261 123.263 36.0525 123.263 36.3902V46.5216C123.263 47.6023 123.496 48.334 123.963 48.7167C124.43 49.0994 125.2 49.2908 126.274 49.2908V50C125.737 49.9775 124.931 49.955 123.858 49.9325C122.807 49.8874 121.722 49.8649 120.602 49.8649C119.551 49.8649 118.489 49.8874 117.416 49.9325C116.342 49.955 115.537 49.9775 115 50V49.2908C115.724 49.2908 116.225 49.122 116.505 48.7842C116.809 48.4465 116.961 47.8049 116.961 46.8593V36.1538C116.961 35.1407 116.821 34.3977 116.54 33.925C116.26 33.4296 115.747 33.182 115 33.182V32.4728C115.747 32.5403 116.47 32.5741 117.171 32.5741C118.338 32.5741 119.423 32.5403 120.427 32.4728C121.454 32.3827 122.399 32.2589 123.263 32.1013V34.5328C123.566 33.9475 123.939 33.4747 124.383 33.1144C124.826 32.7317 125.328 32.4503 125.888 32.2702C126.472 32.0901 127.102 32 127.779 32Z" fill="#32282E"/>
<path d="M146.501 32C147.577 32 148.418 32.1351 149.026 32.4053C149.657 32.6529 150.137 32.9681 150.464 33.3508C150.814 33.7561 151.072 34.2964 151.235 34.9719C151.399 35.6473 151.481 36.5591 151.481 37.7073V46.8593C151.481 47.8049 151.598 48.4465 151.831 48.7842C152.065 49.122 152.486 49.2908 153.094 49.2908V50C152.65 49.9775 151.983 49.955 151.095 49.9325C150.23 49.8874 149.377 49.8649 148.535 49.8649C147.623 49.8649 146.735 49.8874 145.87 49.9325C145.005 49.955 144.35 49.9775 143.906 50V49.2908C144.374 49.2908 144.701 49.122 144.888 48.7842C145.075 48.4465 145.169 47.8049 145.169 46.8593V35.8837C145.169 35.4109 145.122 35.0169 145.028 34.7017C144.935 34.3865 144.783 34.1501 144.572 33.9925C144.385 33.8349 144.128 33.7561 143.801 33.7561C143.38 33.7561 142.971 33.8574 142.574 34.06C142.199 34.2627 141.884 34.5553 141.627 34.9381C141.393 35.2983 141.276 35.7148 141.276 36.1876V46.8593C141.276 47.8049 141.37 48.4465 141.557 48.7842C141.744 49.122 142.071 49.2908 142.538 49.2908V50C142.141 49.9775 141.533 49.955 140.715 49.9325C139.92 49.8874 139.102 49.8649 138.26 49.8649C137.278 49.8649 136.285 49.8874 135.279 49.9325C134.274 49.955 133.514 49.9775 133 50V49.2908C133.725 49.2908 134.227 49.122 134.508 48.7842C134.812 48.4465 134.964 47.8049 134.964 46.8593V36.1538C134.964 35.1407 134.824 34.3977 134.543 33.925C134.262 33.4296 133.748 33.182 133 33.182V32.4728C133.748 32.5403 134.473 32.5741 135.174 32.5741C136.343 32.5741 137.43 32.5403 138.436 32.4728C139.464 32.3827 140.411 32.2589 141.276 32.1013V34.5328C141.814 33.6323 142.527 32.9906 143.415 32.6079C144.304 32.2026 145.332 32 146.501 32ZM157.057 32C158.132 32 158.974 32.1351 159.581 32.4053C160.213 32.6529 160.692 32.9681 161.019 33.3508C161.37 33.7561 161.627 34.2964 161.791 34.9719C161.954 35.6473 162.036 36.5591 162.036 37.7073V46.8593C162.036 47.8049 162.176 48.4465 162.457 48.7842C162.761 49.122 163.275 49.2908 164 49.2908V50C163.532 49.9775 162.819 49.955 161.861 49.9325C160.926 49.8874 160.002 49.8649 159.09 49.8649C158.179 49.8649 157.29 49.8874 156.425 49.9325C155.56 49.955 154.906 49.9775 154.462 50V49.2908C154.929 49.2908 155.256 49.122 155.443 48.7842C155.63 48.4465 155.724 47.8049 155.724 46.8593V35.8837C155.724 35.4109 155.666 35.0169 155.549 34.7017C155.432 34.3865 155.245 34.1501 154.988 33.9925C154.754 33.8349 154.426 33.7561 154.006 33.7561C153.585 33.7561 153.176 33.8799 152.778 34.1276C152.404 34.3752 152.089 34.7017 151.831 35.1069C151.598 35.4897 151.457 35.9174 151.411 36.3902L151.165 35.0394C151.796 33.8462 152.615 33.0469 153.62 32.6417C154.649 32.2139 155.794 32 157.057 32Z" fill="#32282E"/>
</svg>
